<svg width="16" height="17" viewBox="0 0 16 17" fill="none" xmlns="http://www.w3.org/2000/svg">
<path d="M11.3149 6.49149C9.10469 5.58054 6.73452 5.64694 4.68594 6.49306C2.63837 7.33917 0.914989 8.96409 0 11.1665C0.849209 13.2087 2.47817 14.929 4.68514 15.8408C6.89451 16.7525 9.26548 16.6869 11.3141 15.8392C13.3616 14.9939 15.085 13.3688 16 11.1666C15.1516 9.12433 13.5218 7.40411 11.3149 6.49149ZM10.8047 14.6072C9.90706 14.9783 8.96255 15.1666 7.99614 15.1666C7.03365 15.1666 6.09148 14.9791 5.19297 14.6088C3.56254 13.9345 2.25621 12.7236 1.46642 11.1665C2.25547 9.61026 3.5624 8.40008 5.19537 7.72507C6.09302 7.35397 7.03753 7.16646 8.00474 7.16646C8.96645 7.16646 9.90862 7.35397 10.8079 7.72429C12.4383 8.39852 13.7447 9.60948 14.5337 11.1665C13.7446 12.7228 12.4377 13.933 10.8047 14.6072Z" fill="#777E90"/>
<path d="M7.99986 8.50012C6.52722 8.50012 5.3335 9.6939 5.3335 11.1666C5.3335 12.64 6.52724 13.833 7.99986 13.833C9.47328 13.833 10.6662 12.6392 10.6662 11.1666C10.6662 9.6939 9.47328 8.50012 7.99986 8.50012ZM7.99986 12.5002C7.26315 12.5002 6.66628 11.9041 6.66628 11.1673C6.66628 10.4306 7.26315 9.83372 7.99986 9.83372C8.73657 9.83372 9.33345 10.4306 9.33345 11.1673C9.33345 11.9041 8.73657 12.5002 7.99986 12.5002Z" fill="#777E90"/>
<path d="M7.3335 0.5H8.6663V4.49925H7.3335V0.5Z" fill="#777E90"/>
<path d="M14.6631 2.81185L12.6693 5.65868L11.5771 4.89383L13.5709 2.047L14.6631 2.81185Z" fill="#777E90"/>
<path d="M2.42859 2.04602L4.42233 4.89446L3.33016 5.65931L1.33643 2.81087L2.42859 2.04602Z" fill="#777E90"/>
</svg>
