<svg width="25" height="24" viewBox="0 0 25 24" fill="none" xmlns="http://www.w3.org/2000/svg">
<path d="M8.2652 3.52888C7.14117 3.52888 6.06444 3.97524 5.26951 4.76899C4.47569 5.56382 4.0293 6.64046 4.0293 7.76333C4.0293 8.88727 4.47569 9.96391 5.26951 10.7588C6.06441 11.5525 7.14114 11.9989 8.2652 11.9989C9.38817 11.9989 10.4649 11.5525 11.2598 10.7588C12.0536 9.96394 12.5 8.8873 12.5 7.76333C12.4989 6.64046 12.0525 5.5649 11.2587 4.7701C10.4638 3.97634 9.38814 3.52996 8.2652 3.52888ZM8.2652 10.5867C7.12288 10.5867 6.09349 9.89943 5.65568 8.84432C5.21898 7.78921 5.46099 6.5749 6.26774 5.76711C7.07555 4.95937 8.28996 4.71844 9.34521 5.15511C10.4004 5.59284 11.0888 6.62215 11.0888 7.76333C11.0867 9.32182 9.82382 10.5856 8.2652 10.5867Z" fill="#777E90"/>
<path d="M23.9942 17.8629C23.6963 17.7747 23.3768 17.8919 23.2047 18.1511C23.1068 18.2985 22.995 18.4362 22.8691 18.562C21.8322 19.5999 20.1499 19.5999 19.1128 18.5631C18.0749 17.5252 18.0749 15.8441 19.1118 14.806C19.2387 14.6802 19.3774 14.5673 19.5259 14.4694C19.784 14.2973 19.8991 13.9768 19.8109 13.6799C19.7227 13.3831 19.4506 13.1787 19.1408 13.1755C17.6994 13.1604 16.312 13.7219 15.2846 14.7351C14.2584 15.7472 13.6787 17.1282 13.6744 18.5695C13.669 20.0118 14.2401 21.395 15.2598 22.4146C16.2785 23.4342 17.6628 24.0053 19.1053 24C20.5467 23.9957 21.9267 23.4159 22.94 22.3888C23.9522 21.3627 24.5137 19.9752 24.4997 18.534C24.4965 18.2232 24.2922 17.9511 23.9942 17.8629ZM21.9182 21.4142C21.09 22.2413 19.9401 22.663 18.7741 22.5694C17.607 22.4758 16.54 21.8767 15.8539 20.9292C15.1665 19.9816 14.9288 18.7802 15.2042 17.6432C15.4785 16.5053 16.2379 15.5448 17.2812 15.0146C16.8284 16.0245 16.8058 17.1754 17.2199 18.2014C17.633 19.2275 18.4462 20.0417 19.4723 20.4557C20.4985 20.8698 21.6484 20.8483 22.6583 20.3966C22.4668 20.773 22.2172 21.1163 21.9182 21.4142Z" fill="#777E90"/>
<path d="M8.26505 2.58777C8.65444 2.58777 8.97067 2.27157 8.97067 1.88221V0.705562C8.97067 0.315128 8.65444 0 8.26505 0C7.87458 0 7.55835 0.315128 7.55835 0.705562V1.88221C7.55835 2.27157 7.87458 2.58777 8.26505 2.58777Z" fill="#777E90"/>
<path d="M3.60644 4.10435C3.88181 4.37969 4.3282 4.37969 4.60464 4.10435C4.88001 3.82794 4.88001 3.38158 4.60464 3.10624L3.7721 2.27377C3.49674 1.99843 3.05035 1.99843 2.77391 2.27377C2.49854 2.54912 2.49854 2.99655 2.77391 3.27189L3.60644 4.10435Z" fill="#777E90"/>
<path d="M3.08799 7.76335C3.08799 7.37399 2.77176 7.05779 2.38237 7.05779H1.20562C0.816229 7.05779 0.5 7.37399 0.5 7.76335C0.5 8.15379 0.816229 8.46999 1.20562 8.46999H2.38237C2.77176 8.46999 3.08799 8.15379 3.08799 7.76335Z" fill="#777E90"/>
<path d="M3.60644 11.4235L2.77391 12.2559C2.49854 12.5313 2.49854 12.9787 2.77391 13.2541C3.05035 13.5294 3.49674 13.5294 3.7721 13.2541L4.60357 12.4216H4.60464C4.88001 12.1462 4.88001 11.6999 4.60464 11.4235C4.3282 11.1481 3.88181 11.1481 3.60644 11.4235Z" fill="#777E90"/>
<path d="M8.26505 12.94C7.87458 12.94 7.55835 13.2563 7.55835 13.6456V14.8223C7.55835 15.2116 7.87458 15.5278 8.26505 15.5278C8.65444 15.5278 8.97067 15.2116 8.97067 14.8223V13.6456C8.97067 13.2563 8.65444 12.94 8.26505 12.94Z" fill="#777E90"/>
<path d="M13.7553 12.2561L12.9238 11.4236C12.6473 11.1483 12.201 11.1483 11.9256 11.4236C11.6492 11.7001 11.6492 12.1464 11.9256 12.4218L12.7571 13.2542C13.0324 13.5296 13.4799 13.5296 13.7553 13.2542C14.0306 12.9789 14.0306 12.5314 13.7553 12.2561Z" fill="#777E90"/>
<path d="M13.4412 7.76335C13.4412 8.15379 13.7574 8.46999 14.1468 8.46999H15.3235C15.714 8.46999 16.0292 8.15379 16.0292 7.76335C16.0292 7.37399 15.714 7.05779 15.3235 7.05779H14.1468C13.7574 7.05779 13.4412 7.37399 13.4412 7.76335Z" fill="#777E90"/>
<path d="M12.4248 4.31086C12.6119 4.31086 12.7916 4.23665 12.9239 4.10435L13.7553 3.27189C14.0307 2.99655 14.0307 2.54912 13.7553 2.27377C13.48 1.99843 13.0325 1.99843 12.7571 2.27377L11.9257 3.10624C11.7235 3.30737 11.6632 3.61174 11.7719 3.87527C11.8816 4.13878 12.1386 4.31086 12.4248 4.31086Z" fill="#777E90"/>
</svg>
