<svg width="44" height="44" viewBox="0 0 44 44" fill="none" xmlns="http://www.w3.org/2000/svg">
<path fill-rule="evenodd" clip-rule="evenodd" d="M22 44C34.1503 44 44 34.1503 44 22C44 9.84974 34.1503 0 22 0C9.84974 0 0 9.84974 0 22C0 34.1503 9.84974 44 22 44ZM14.7678 11.2322C13.7915 10.2559 12.2085 10.2559 11.2322 11.2322C10.2559 12.2085 10.2559 13.7915 11.2322 14.7678L18.4645 22L11.2322 29.2322C10.2559 30.2085 10.2559 31.7915 11.2322 32.7678C12.2085 33.7441 13.7915 33.7441 14.7678 32.7678L22 25.5355L29.2322 32.7678C30.2085 33.7441 31.7915 33.7441 32.7678 32.7678C33.7441 31.7915 33.7441 30.2085 32.7678 29.2322L25.5355 22L32.7678 14.7678C33.7441 13.7915 33.7441 12.2085 32.7678 11.2322C31.7915 10.2559 30.2085 10.2559 29.2322 11.2322L22 18.4645L14.7678 11.2322Z" fill="#EB5353"/>
</svg>
