<svg width="25" height="24" viewBox="0 0 25 24" fill="none" xmlns="http://www.w3.org/2000/svg">
<path d="M12.168 24C12.0663 24 11.9666 23.9701 11.8818 23.9134L9.0733 22.035C8.95561 21.9534 8.87782 21.826 8.85887 21.6836L6.14304 4.65376C6.11312 4.46562 6.19091 4.27648 6.3445 4.164L11.8648 0.0996986C12.0443 -0.0326937 12.2896 -0.0326937 12.4692 0.0996986L17.9914 4.177H17.9924C18.144 4.29047 18.2208 4.47861 18.1909 4.66576L15.4741 21.6836C15.4521 21.823 15.3723 21.9464 15.2546 22.0251L12.4461 23.9034C12.3654 23.9622 12.2688 23.996 12.168 24ZM9.83228 21.3143L12.168 22.8761L14.5018 21.3143L17.1339 4.79821L12.1682 1.14393L7.19943 4.79821L9.83228 21.3143Z" fill="#777E90"/>
<path d="M12.1677 24C12.0071 24 11.8555 23.9243 11.7598 23.7959L10.4573 22.0738C10.4004 21.9992 10.3655 21.9116 10.3555 21.819L9.09389 6.16472C9.08591 6.07712 9.10087 5.98952 9.13678 5.90989L11.703 0.303606C11.7848 0.119449 11.9663 0.000993841 12.1677 0C12.3682 0 12.5497 0.116465 12.6325 0.297643L15.1857 5.90393C15.2216 5.98456 15.2366 6.07215 15.2296 6.15876L13.9779 21.8079C13.968 21.9015 13.933 21.9891 13.8762 22.0628L12.5737 23.7859C12.4799 23.9172 12.3293 23.997 12.1677 24ZM11.3609 21.5791L12.1677 22.6442L12.9716 21.5791L14.2133 6.21558L12.1707 1.7382L10.1281 6.21558L11.3609 21.5791Z" fill="#777E90"/>
<path d="M14.7312 6.6335H9.60183C9.51905 6.6335 9.43827 6.61259 9.36447 6.57477L6.40838 5.02489C6.16603 4.8905 6.07527 4.5879 6.20393 4.34301C6.33358 4.09714 6.63478 4.00057 6.88313 4.12302L9.72942 5.61419H14.6065L17.451 4.12302C17.6994 4.00058 18.0006 4.09714 18.1302 4.34301C18.2589 4.58789 18.1681 4.89049 17.9258 5.02489L14.9697 6.57477C14.8959 6.61259 14.814 6.6335 14.7312 6.6335Z" fill="#777E90"/>
<path d="M8.41483 22.9577C8.34602 22.9567 8.2772 22.9428 8.21337 22.9169L6.45407 22.1524C6.34037 22.1017 6.24961 22.0111 6.19875 21.8976L2.66207 14.1023C2.60223 13.9689 2.60223 13.8176 2.66207 13.6842L4.1481 10.3714C4.20395 10.243 4.30967 10.1425 4.44231 10.0947C4.57395 10.0459 4.71956 10.0539 4.84523 10.1166L8.10361 11.786C8.24822 11.8596 8.34995 11.998 8.37688 12.1582L9.86789 21.5182C9.8998 21.6984 9.83298 21.8825 9.69136 21.999L8.73391 22.8272C8.64615 22.9068 8.53352 22.9527 8.41483 22.9577ZM7.03851 21.3013L8.31511 21.8548L8.82574 21.4188L7.40653 12.5884L4.85334 11.2834L3.68645 13.8913L7.03851 21.3013Z" fill="#777E90"/>
<path d="M8.41483 22.9577C8.34602 22.9567 8.2772 22.9428 8.21337 22.9169L6.45407 22.1524C6.34037 22.1017 6.24961 22.0111 6.19875 21.8976L2.66207 14.1023C2.60223 13.9689 2.60223 13.8176 2.66207 13.6842L4.1481 10.3714C4.23487 10.1793 4.43135 10.0598 4.64278 10.0718C4.85422 10.0827 5.03674 10.2241 5.10057 10.4252L8.89257 22.2878C8.95241 22.4779 8.89556 22.686 8.74696 22.8204C8.6562 22.905 8.53851 22.9537 8.41483 22.9577ZM7.03851 21.3013L7.58704 21.5382L4.53112 11.9999L3.68637 13.8803L7.03851 21.3013Z" fill="#777E90"/>
<path d="M5.74215 14.6219H5.69827L3.08431 14.4V14.401C2.91875 14.385 2.77114 14.2895 2.68836 14.1461C2.60459 14.0038 2.59561 13.8296 2.66243 13.6793L4.14847 10.3665C4.20432 10.2381 4.31003 10.1375 4.44267 10.0888C4.57432 10.041 4.71992 10.0489 4.84559 10.1117L8.10397 11.781C8.25357 11.8577 8.3563 12.004 8.37724 12.1712C8.39819 12.3384 8.33535 12.5047 8.20869 12.6172L6.07938 14.4776V14.4766C5.98862 14.5652 5.86881 14.617 5.74215 14.6219ZM3.8881 13.4443L5.56762 13.5867L6.96888 12.3633L4.85752 11.2833L3.8881 13.4443Z" fill="#777E90"/>
<path d="M17.4458 23.5869C17.356 23.5859 17.2672 23.562 17.1904 23.5162L14.716 22.0509C14.5395 21.9454 14.4438 21.7444 14.4737 21.5413L16.0186 11.796C16.0485 11.6039 16.1861 11.4456 16.3736 11.3889L19.8434 10.3238C20.0518 10.2581 20.2782 10.3327 20.4069 10.5089L22.2859 13.0771V13.0781C22.3657 13.1866 22.3986 13.322 22.3786 13.4554L21.0761 21.8648C21.0492 22.04 20.9315 22.1893 20.7669 22.257L17.6423 23.5571C17.5795 23.579 17.5126 23.5899 17.4458 23.5869ZM15.5309 21.3522L17.4867 22.5089L20.1088 21.4288L21.3365 13.529L19.8046 11.4237L16.9961 12.2897L15.5309 21.3522Z" fill="#777E90"/>
<path d="M19.263 14.8309C19.1383 14.8309 19.0176 14.7841 18.9239 14.7015L16.1843 12.2547C16.0477 12.1323 15.9868 11.9461 16.0257 11.7669C16.0646 11.5868 16.1973 11.4424 16.3738 11.3887L19.8436 10.3236C20.052 10.2579 20.2784 10.3325 20.4071 10.5087L22.2861 13.0769V13.0779C22.3808 13.2083 22.4087 13.3755 22.3609 13.5288C22.314 13.6821 22.1973 13.8055 22.0467 13.8603L19.4376 14.803C19.3817 14.8219 19.3228 14.8319 19.263 14.8309ZM17.5376 12.0966L19.3757 13.738L21.0582 13.1318L19.7965 11.4038L17.5376 12.0966Z" fill="#777E90"/>
<path d="M17.4458 23.5869C17.3271 23.5859 17.2125 23.5441 17.1217 23.4674C16.9701 23.345 16.9013 23.1469 16.9452 22.9578L19.4984 10.6882C19.5432 10.4911 19.6998 10.3398 19.8983 10.301C20.0968 10.2621 20.2992 10.3438 20.4149 10.509L22.2939 13.0772V13.0782C22.3737 13.1867 22.4066 13.3221 22.3857 13.4555L21.0831 21.8649H21.0841C21.0562 22.0401 20.9395 22.1894 20.775 22.2571L17.6504 23.5572C17.5845 23.58 17.5146 23.5909 17.4458 23.5869ZM20.2543 12.038L18.138 22.2312L20.1087 21.4289L21.3365 13.5291L20.2543 12.038Z" fill="#777E90"/>
<path d="M4.38862 4.4366C4.25199 4.4366 4.12233 4.38285 4.02559 4.28629L0.650522 0.914879C0.476985 0.712805 0.488954 0.41118 0.677451 0.223063C0.865948 0.0349268 1.16815 0.0229803 1.37059 0.196186L4.74846 3.5648C4.89507 3.71113 4.93995 3.93012 4.86116 4.12125C4.78238 4.31237 4.59487 4.4368 4.38842 4.4368L4.38862 4.4366Z" fill="#777E90"/>
<path d="M19.58 5.46586C19.3725 5.46586 19.186 5.34144 19.1072 5.15031C19.0284 4.95918 19.0733 4.74018 19.2199 4.59485L20.8895 2.92849V2.92749C21.089 2.7284 21.4131 2.7284 21.6126 2.92749C21.812 3.12658 21.812 3.4501 21.6126 3.64917L19.943 5.31554H19.942C19.8463 5.4121 19.7156 5.46586 19.58 5.46586Z" fill="#777E90"/>
<path d="M22.518 2.53352C22.3126 2.53352 22.126 2.4091 22.0463 2.21896C21.9675 2.02883 22.0104 1.80983 22.156 1.6645L23.629 0.19624C23.8315 0.0230337 24.1337 0.0349801 24.3222 0.223117C24.5107 0.411253 24.5226 0.712877 24.3491 0.914932L22.878 2.38518C22.7823 2.47975 22.6537 2.53352 22.518 2.53352Z" fill="#777E90"/>
<path d="M4.616 7.49457H1.01064C0.728383 7.49457 0.5 7.26662 0.5 6.98491C0.5 6.7032 0.728391 6.47525 1.01064 6.47525H4.616C4.89726 6.47525 5.12664 6.7032 5.12664 6.98491C5.12664 7.26663 4.89725 7.49457 4.616 7.49457Z" fill="#777E90"/>
<path d="M23.9895 8.08298H19.1972C18.9149 8.08298 18.6865 7.85503 18.6865 7.57332C18.6865 7.2926 18.9149 7.06366 19.1972 7.06366H23.9895C24.2718 7.06366 24.5001 7.29261 24.5001 7.57332C24.5001 7.85504 24.2717 8.08298 23.9895 8.08298Z" fill="#777E90"/>
</svg>
