<svg width="25" height="24" viewBox="0 0 25 24" fill="none" xmlns="http://www.w3.org/2000/svg">
<path d="M9.16581 0.983486C8.51822 0.983486 8.51822 0.000538122 9.16581 0.000538122H11.2728C11.9204 0.000538122 11.9204 0.983486 11.2728 0.983486H9.16581ZM12.502 5.75613C15.9502 5.75613 18.7468 8.55182 18.7468 12.0012C18.7468 15.4495 15.9512 18.2463 12.502 18.2463C9.05383 18.2463 6.25726 15.4506 6.25726 12.0012C6.25726 8.55284 9.05281 5.75613 12.502 5.75613ZM12.502 6.73908C9.59628 6.73908 7.24121 9.09437 7.24121 12.0001C7.24121 14.9059 9.59639 17.2612 12.502 17.2612C15.4076 17.2612 17.7628 14.9059 17.7628 12.0001C17.7628 9.09437 15.4076 6.73908 12.502 6.73908ZM7.47746 4.82321C7.9349 4.36575 8.63053 5.06044 8.17209 5.51787L6.02011 7.66996C5.56268 8.12742 4.86805 7.43273 5.32548 6.97529L7.47746 4.82321ZM3.87426 10.4776C3.87426 9.82999 4.85716 9.82999 4.85716 10.4776V13.5216C4.85716 14.1692 3.87426 14.1692 3.87426 13.5216V10.4776ZM5.32461 17.024C4.86718 16.5666 5.56183 15.8709 6.01924 16.3293L8.17122 18.4814C8.62866 18.9389 7.934 19.6336 7.47659 19.1761L5.32461 17.024ZM10.9787 20.6274C10.3311 20.6274 10.3311 19.6444 10.9787 19.6444H14.0226C14.6702 19.6444 14.6702 20.6274 14.0226 20.6274H10.9787ZM6.95402 2.96027C7.41145 2.50282 8.10709 3.1975 7.64865 3.65494L6.77084 4.5318C6.3134 4.98926 5.61777 4.29457 6.0762 3.83713L6.95402 2.95927V2.96027ZM4.33861 5.57581C4.79604 5.11835 5.49068 5.81304 5.03324 6.27048L4.15642 7.14834C3.69899 7.60579 3.00336 6.91111 3.46179 6.45367L4.33961 5.57581H4.33861ZM2.18663 9.53077C2.18663 8.88315 3.16953 8.88315 3.16953 9.53077V10.772C3.16953 11.4196 2.18663 11.4196 2.18663 10.772V9.53077ZM2.18663 13.2305C2.18663 12.5829 3.16953 12.5829 3.16953 13.2305V14.4717C3.16953 15.1193 2.18663 15.1193 2.18663 14.4717V13.2305ZM3.46082 17.5478C3.00338 17.0903 3.69804 16.3947 4.15545 16.8531L5.03227 17.731C5.4897 18.1884 4.79505 18.8841 4.33764 18.4256L3.45982 17.5478H3.46082ZM6.07623 20.1633C5.6188 19.7059 6.31345 19.0112 6.77086 19.4687L7.64868 20.3455C8.10611 20.803 7.41146 21.4986 6.95405 21.0402L6.07623 20.1623V20.1633ZM10.03 22.3154C9.38238 22.3154 9.38238 21.3325 10.03 21.3325H14.9705C15.6181 21.3325 15.6181 22.3154 14.9705 22.3154H10.03ZM6.37346 1.15586C6.8309 0.698408 7.52553 1.3931 7.0681 1.85053L2.35077 6.56809C1.89334 7.02554 1.19771 6.33086 1.65614 5.87342L6.37346 1.15586ZM0.5 8.66423C0.5 8.01661 1.4829 8.01661 1.4829 8.66423V10.7713C1.4829 11.4189 0.5 11.4189 0.5 10.7713V8.66423ZM0.5 13.2296C0.5 12.582 1.4829 12.582 1.4829 13.2296V15.3366C1.4829 15.9843 0.5 15.9843 0.5 15.3366V13.2296ZM1.65606 18.1262C1.19863 17.6688 1.89328 16.9741 2.3507 17.4316L7.06802 22.1491C7.52545 22.6066 6.8308 23.3023 6.37339 22.8438L1.65606 18.1262ZM9.16406 24C8.51648 24 8.51648 23.0171 9.16406 23.0171H11.271C11.9186 23.0171 11.9186 24 11.271 24H9.16406ZM13.7292 24C13.0816 24 13.0816 23.0171 13.7292 23.0171H15.8361C16.4837 23.0171 16.4837 24 15.8361 24H13.7292ZM18.982 16.3284C19.4384 15.872 20.1341 16.5666 19.6767 17.0231L19.4695 17.2303C19.0131 17.6867 18.3174 16.993 18.7749 16.5356L18.982 16.3284ZM17.0362 18.2743C17.4926 17.8169 18.1883 18.5115 17.7309 18.969L17.5237 19.1762C17.0673 19.6336 16.3716 18.9389 16.829 18.4815L17.0362 18.2743ZM20.1441 10.4777C20.1441 9.83004 21.127 9.83004 21.127 10.4777V13.5216C21.127 14.1693 20.1441 14.1693 20.1441 13.5216V10.4777ZM16.8289 5.51795C16.3725 5.06152 17.0672 4.36583 17.5236 4.82328L17.7308 5.03048C18.1872 5.48692 17.4935 6.18261 17.0361 5.72515L16.8289 5.51795ZM18.7747 7.46386C18.3173 7.00743 19.012 6.31173 19.4694 6.76919L19.6766 6.97639C20.134 7.43282 19.4393 8.12852 18.9819 7.67106L18.7747 7.46386ZM10.9785 4.35581C10.3309 4.35581 10.3309 3.37286 10.9785 3.37286H14.0223C14.6699 3.37286 14.6699 4.35581 14.0223 4.35581H10.9785ZM20.8446 16.8521C21.3021 16.3946 21.9977 17.0893 21.5393 17.5467L18.046 21.0402C17.5885 21.4976 16.8929 20.803 17.3513 20.3455L20.8446 16.8521ZM21.8305 9.53C21.8305 8.88238 22.8134 8.88238 22.8134 9.53V10.7712C22.8134 11.4188 21.8305 11.4188 21.8305 10.7712V9.53ZM21.8305 13.2297C21.8305 12.5821 22.8134 12.5821 22.8134 13.2297V14.471C22.8134 15.1186 21.8305 15.1186 21.8305 14.471V13.2297ZM17.3515 3.65548C16.8941 3.19802 17.5887 2.50235 18.0462 2.96081L21.5394 6.45426C21.9969 6.91172 21.3022 7.60738 20.8448 7.14893L17.3515 3.65548ZM10.0298 2.66951C9.38222 2.66951 9.38222 1.68656 10.0298 1.68656H11.271C11.9186 1.68656 11.9186 2.66951 11.271 2.66951H10.0298ZM13.7294 2.66951C13.0818 2.66951 13.0818 1.68656 13.7294 1.68656H14.9705C15.6181 1.68656 15.6181 2.66951 14.9705 2.66951H13.7294ZM22.6495 17.4318C23.1069 16.9743 23.8025 17.669 23.3441 18.1265L21.8547 19.6169C21.3973 20.0744 20.7017 19.3797 21.1601 18.9222L22.6495 17.4328V17.4318ZM19.4214 20.66C19.8788 20.2026 20.5735 20.8972 20.116 21.3547L18.6257 22.8441C18.1682 23.3016 17.4736 22.6069 17.931 22.1495L19.4204 20.66H19.4214ZM23.5171 8.66446C23.5171 8.01684 24.5 8.01684 24.5 8.66446V15.3369C24.5 15.9846 23.5171 15.9846 23.5171 15.3369V8.66446ZM17.9319 1.85079C17.4745 1.39333 18.1691 0.697665 18.6265 1.15612L23.3439 5.87368C23.8013 6.33113 23.1066 7.0258 22.6492 6.56834L17.9319 1.85079ZM13.7291 0.982948C13.0815 0.982948 13.0815 0 13.7291 0H15.8361C16.4837 0 16.4837 0.982948 15.8361 0.982948H13.7291Z" fill="#777E90"/>
</svg>
