<svg width="25" height="24" viewBox="0 0 25 24" fill="none" xmlns="http://www.w3.org/2000/svg">
<path d="M23.6795 13.4488C22.5778 12.4108 20.7935 12.4108 19.6917 13.4488L17.9461 15.0967V4.47038C17.9473 3.56253 17.4437 2.7203 16.6199 2.2524C15.795 1.7845 14.7718 1.75867 13.9219 2.18463C13.7133 0.927208 12.566 0 11.217 0C9.8691 0 8.7206 0.927208 8.51211 2.18463C7.7305 1.79202 6.79621 1.78128 6.00433 2.15451C5.21248 2.52885 4.661 3.24091 4.52429 4.06701C3.67544 3.64104 2.65114 3.66687 1.82738 4.13477C1.00248 4.60267 0.498864 5.4449 0.500002 6.35275V19.5295C0.501141 20.7149 1.00018 21.8507 1.8889 22.6899C2.77648 23.5278 3.97966 23.9989 5.23535 24H14.904C16.5789 24.0011 18.1705 23.3084 19.2588 22.1058L23.8276 17.0611C24.7779 16.0027 24.7141 14.4344 23.6795 13.4492L23.6795 13.4488ZM22.6917 16.1433L18.1228 21.188C17.3184 22.0776 16.1426 22.5885 14.9041 22.5885H5.23549C3.44667 22.5863 1.99726 21.2181 1.99521 19.5294V6.35269C1.99521 5.70299 2.55352 5.17595 3.24168 5.17595C3.92987 5.17595 4.48815 5.70302 4.48815 6.35269V11.9999C4.48815 12.3893 4.82311 12.7055 5.23558 12.7055C5.64918 12.7055 5.98301 12.3893 5.98301 11.9999V4.4703C5.98301 3.8206 6.54132 3.29355 7.22948 3.29355C7.91767 3.29355 8.47594 3.82063 8.47594 4.4703V11.9999C8.47594 12.3893 8.81091 12.7055 9.22337 12.7055C9.63698 12.7055 9.97081 12.3893 9.97081 11.9999V2.5879C9.97081 1.93821 10.5291 1.41116 11.2173 1.41116C11.9055 1.41116 12.4637 1.93824 12.4637 2.5879V11.9999C12.4637 12.3893 12.7987 12.7055 13.2112 12.7055C13.6248 12.7055 13.9586 12.3893 13.9586 11.9999V4.4703C13.9586 3.8206 14.5169 3.29355 15.2051 3.29355C15.8933 3.29355 16.4515 3.82063 16.4515 4.4703V16.8003C16.4515 17.0854 16.6338 17.3435 16.913 17.4522C17.1921 17.5619 17.5134 17.5016 17.7276 17.2994L20.7492 14.4469C21.2516 13.9725 22.0629 13.9575 22.5847 14.4136C23.1065 14.8685 23.1543 15.6335 22.6917 16.1433Z" fill="#777E90"/>
<path d="M13.2112 14.1177H5.23547C4.823 14.1177 4.48804 14.4339 4.48804 14.8233C4.48804 15.2127 4.823 15.5289 5.23547 15.5289H9.76672C8.93841 16.355 8.4758 17.45 8.4758 18.5879V20.4703C8.4758 20.8597 8.81077 21.1759 9.22324 21.1759C9.63684 21.1759 9.97067 20.8597 9.97067 20.4703V18.5879C9.97295 16.8992 11.4222 15.5308 13.2109 15.5289C13.6245 15.5289 13.9584 15.2127 13.9584 14.8233C13.9584 14.4339 13.6248 14.1177 13.2112 14.1177Z" fill="#777E90"/>
</svg>
