<svg width="16" height="24" viewBox="0 0 16 24" fill="none" xmlns="http://www.w3.org/2000/svg">
<path d="M7.9915 10.7714C6.23238 10.7714 4.54469 11.469 3.30018 12.7087C2.05667 13.9495 1.35693 15.6319 1.35693 17.3868C1.35693 19.1406 2.05667 20.8231 3.30018 22.0638C4.54478 23.3035 6.23233 24 7.9915 24C9.75171 24 11.4394 23.3035 12.6828 22.0638C13.9274 20.823 14.6261 19.1406 14.6261 17.3868C14.6239 15.6331 13.9253 13.9517 12.6807 12.711C11.4372 11.4713 9.75068 10.7736 7.9915 10.7714ZM7.9915 22.5833C6.60934 22.5833 5.28352 22.0358 4.30538 21.0607C3.32835 20.0866 2.77917 18.7648 2.77917 17.3869C2.77917 16.0079 3.32835 14.6862 4.30538 13.7121C5.2835 12.737 6.60934 12.1895 7.9915 12.1895C9.37475 12.1895 10.7006 12.737 11.6776 13.7121C12.6557 14.6861 13.2049 16.0079 13.2049 17.3869C13.2028 18.7638 12.6536 20.0855 11.6765 21.0596C10.6984 22.0336 9.37364 22.5822 7.9915 22.5833Z" fill="#777E90"/>
<path d="M7.99145 13.456C7.80298 13.456 7.62209 13.5306 7.48885 13.6634L4.25778 16.8857C4.12454 17.0185 4.0498 17.1978 4.0498 17.3867C4.0498 17.5746 4.12454 17.7539 4.25778 17.8878L7.48885 21.109V21.1079C7.62208 21.2407 7.80297 21.3163 7.99145 21.3163C8.17993 21.3163 8.36081 21.2407 8.49405 21.1079L11.7251 17.8878C11.8584 17.7539 11.9331 17.5747 11.9331 17.3868C11.9331 17.1978 11.8584 17.0185 11.7251 16.8857L8.49405 13.6634C8.36082 13.5306 8.17993 13.456 7.99145 13.456ZM7.99145 19.6048L5.7655 17.3868L7.99145 15.1676L10.2174 17.3868L7.99145 19.6048Z" fill="#777E90"/>
<path d="M6.1512 2.36132C6.62998 2.36132 7.06218 2.07406 7.24523 1.6324C7.42829 1.1918 7.32755 0.68319 6.98851 0.346281C6.65054 0.00826736 6.14037 -0.093217 5.69844 0.0903506C5.2554 0.272851 4.96729 0.703735 4.96729 1.18102C4.96729 1.8322 5.49697 2.36132 6.1512 2.36132Z" fill="#777E90"/>
<path d="M3.08577 4.41506C3.56455 4.41506 3.99675 4.1278 4.1798 3.68614C4.36286 3.24554 4.26212 2.73801 3.92308 2.40002C3.58403 2.06201 3.07494 1.9616 2.63301 2.14409C2.18997 2.32659 1.90186 2.75747 1.90186 3.23476C1.90186 3.88702 2.43154 4.41506 3.08577 4.41506Z" fill="#777E90"/>
<path d="M2.86785 6.64406C2.86785 6.16675 2.57971 5.73587 2.1367 5.55339C1.69474 5.37089 1.18565 5.47132 0.846626 5.80932C0.508656 6.14733 0.40686 6.65487 0.58991 7.09544C0.77297 7.53713 1.20518 7.82436 1.68393 7.82436C1.99806 7.82436 2.2992 7.70017 2.52123 7.4788C2.74329 7.25742 2.86785 6.95723 2.86785 6.64406Z" fill="#777E90"/>
<path d="M2.43343 11.4311C2.91221 11.4311 3.3433 11.1438 3.52745 10.7021C3.71051 10.2615 3.60869 9.75401 3.27073 9.41602C2.93168 9.07801 2.42259 8.9776 1.97958 9.16009C1.53762 9.34259 1.24951 9.77347 1.24951 10.2508C1.24951 10.903 1.7792 11.4311 2.43343 11.4311Z" fill="#777E90"/>
<path d="M9.84896 2.36132C10.3277 2.36132 10.7599 2.07406 10.943 1.6324C11.126 1.1918 11.0253 0.68319 10.6863 0.346281C10.3472 0.00826736 9.83812 -0.093217 9.39619 0.0903506C8.95315 0.272851 8.66504 0.703735 8.66504 1.18102C8.66504 1.8322 9.19473 2.36132 9.84896 2.36132Z" fill="#777E90"/>
<path d="M12.9144 4.41506C13.3932 4.41506 13.8254 4.1278 14.0084 3.68614C14.1915 3.24554 14.0907 2.73801 13.7517 2.40002C13.4126 2.06201 12.9035 1.9616 12.4616 2.14409C12.0186 2.32659 11.7305 2.75747 11.7305 3.23476C11.7305 3.88702 12.2602 4.41506 12.9144 4.41506Z" fill="#777E90"/>
<path d="M14.316 5.46363C13.8372 5.46363 13.405 5.75089 13.222 6.19254C13.0389 6.63315 13.1397 7.14068 13.4787 7.47867C13.8167 7.81668 14.3268 7.91708 14.7688 7.7346C15.2118 7.55209 15.4999 7.12121 15.4999 6.64392C15.4999 5.99167 14.9702 5.46363 14.316 5.46363Z" fill="#777E90"/>
<path d="M13.5667 9.07046C13.088 9.07046 12.6569 9.35772 12.4727 9.79937C12.2897 10.24 12.3915 10.7475 12.7294 11.0855C13.0685 11.4235 13.5776 11.5239 14.0206 11.3414C14.4626 11.1589 14.7507 10.728 14.7507 10.2508C14.7507 9.5985 14.221 9.07046 13.5667 9.07046Z" fill="#777E90"/>
</svg>
