<svg width="16" height="18" viewBox="0 0 16 18" fill="none" xmlns="http://www.w3.org/2000/svg">
<path d="M14.9233 2.88545e-05H3.38439C1.79226 0.00164244 0.501575 1.18594 0.5 2.64687V13.9405C0.5 13.9777 0.504396 14.0156 0.513187 14.0519C0.505275 14.1309 0.5 14.2116 0.5 14.2923V15.3532C0.501758 16.8142 1.79235 17.9986 3.38439 18H14.9233C15.2415 18 15.5 17.7628 15.5 17.4708V0.529223C15.5 0.237175 15.2415 2.88545e-05 14.9233 2.88545e-05ZM3.96122 1.05848H14.3458V11.6471H3.96122V1.05848ZM2.80778 1.15609V11.7003C2.38842 11.7793 1.99456 11.9439 1.65346 12.1811V2.64703C1.6561 1.97582 2.11765 1.37877 2.80778 1.15609ZM3.3845 16.9417C2.42887 16.9409 1.65434 16.2302 1.65346 15.3532V14.2924C1.65522 13.4171 2.42799 12.7071 3.38274 12.7063H14.3466V13.4122H3.38454C3.06628 13.4122 2.80782 13.6494 2.80782 13.9415C2.80782 14.2335 3.06628 14.4707 3.38454 14.4707H14.3466V15.1766H3.38454C3.06628 15.1766 2.80782 15.4138 2.80782 15.7058C2.80782 15.9987 3.06628 16.2358 3.38454 16.2358H14.3466V16.9417L3.3845 16.9417Z" fill="#777E90"/>
<path d="M12.1276 6.3532L13.1149 4.78408C13.2177 4.62031 13.2177 4.41863 13.1149 4.25485C13.012 4.09028 12.8212 3.98943 12.6155 3.98943H10.6409L9.65367 2.4203C9.55081 2.25653 9.36003 2.1557 9.15343 2.1557C8.94771 2.1557 8.75694 2.25654 8.65406 2.4203L7.66679 3.98943H5.69223C5.48651 3.98943 5.29574 4.09027 5.19287 4.25485C5.09001 4.41862 5.09001 4.6203 5.19287 4.78408L6.18014 6.3532L5.19287 7.92233C5.09001 8.08609 5.09001 8.28777 5.19287 8.45155C5.29573 8.61532 5.4865 8.71615 5.69223 8.71615H7.66679L8.65406 10.2853V10.2861C8.75692 10.4499 8.9477 10.5507 9.15431 10.5507C9.36003 10.5507 9.5508 10.4498 9.65367 10.2861L10.6409 8.71696L12.6155 8.71615C12.8212 8.71615 13.012 8.61531 13.1149 8.45155C13.2177 8.28778 13.2177 8.0861 13.1149 7.92233L12.1276 6.3532ZM10.3078 7.6577C10.102 7.6577 9.91128 7.75855 9.8084 7.92231L9.15343 8.96221L8.49936 7.92231C8.3965 7.75854 8.20572 7.6577 7.99999 7.6577H6.69182L7.34589 6.6178C7.44875 6.45403 7.44875 6.25235 7.34589 6.08858L6.69182 5.04868H7.99999C8.20571 5.04868 8.39648 4.94784 8.49936 4.78408L9.15343 3.74418L9.8075 4.78408H9.80838C9.91124 4.94785 10.102 5.04868 10.3077 5.04868H11.6159L10.9618 6.08858C10.859 6.25235 10.859 6.45403 10.9618 6.6178L11.6159 7.6577H10.3078Z" fill="#777E90"/>
</svg>
