<svg width="18" height="18" viewBox="0 0 18 18" fill="none" xmlns="http://www.w3.org/2000/svg">
<path fill-rule="evenodd" clip-rule="evenodd" d="M6.93514 6.44473C6.85094 6.64638 6.66111 6.78406 6.44328 6.80145L2.48556 7.11751C1.9677 7.15887 1.75817 7.80553 2.15335 8.14274L5.16538 10.7129C5.33222 10.8552 5.40511 11.0791 5.35403 11.2924L4.43322 15.1377C4.31244 15.6421 4.86065 16.0415 5.30372 15.7719L8.69656 13.7076C8.88282 13.5943 9.11672 13.5943 9.30297 13.7076L12.6958 15.7719C13.1389 16.0415 13.6871 15.6421 13.5663 15.1377L12.6455 11.2924C12.5944 11.0791 12.6673 10.8552 12.8342 10.7129L15.8462 8.14274C16.2414 7.80553 16.0318 7.15887 15.514 7.11751L11.5563 6.80145C11.3384 6.78406 11.1486 6.64638 11.0644 6.44473L9.53806 2.78922C9.33843 2.31112 8.6611 2.31112 8.46147 2.78922L6.93514 6.44473ZM12.3477 5.19269L11.076 2.14704C10.3061 0.302947 7.69347 0.302963 6.92349 2.14704L5.6518 5.19269L2.35288 5.45614C0.355444 5.61565 -0.452763 8.10993 1.07152 9.41058L3.57861 11.5498L2.81238 14.7496C2.34651 16.695 4.46104 18.2355 6.17002 17.1957L8.99977 15.474L11.8295 17.1957C13.5385 18.2355 15.653 16.695 15.1872 14.7496L14.4209 11.5498L16.928 9.41058C18.4523 8.10992 17.6441 5.61565 15.6467 5.45614L12.3477 5.19269Z" fill="#777E91"/>
</svg>
