<svg width="16" height="16" viewBox="0 0 16 16" fill="none" xmlns="http://www.w3.org/2000/svg">
<path fill-rule="evenodd" clip-rule="evenodd" d="M11.8282 5.33333H4.1719C3.4028 5.33333 2.79319 5.98224 2.84116 6.74984L3.1745 12.0832C3.21842 12.7859 3.80115 13.3333 4.50523 13.3333H11.4948C12.1989 13.3333 12.7816 12.7859 12.8256 12.0832L13.1589 6.74984C13.2069 5.98224 12.5973 5.33333 11.8282 5.33333ZM4.1719 4C2.63371 4 1.41448 5.29781 1.51043 6.83301L1.84376 12.1663C1.9316 13.5718 3.09706 14.6667 4.50523 14.6667H11.4948C12.903 14.6667 14.0685 13.5718 14.1563 12.1663L14.4896 6.83301C14.5856 5.29781 13.3663 4 11.8282 4H4.1719Z" fill="#FCFCFD"/>
<path fill-rule="evenodd" clip-rule="evenodd" d="M4.66675 4.66671C4.66675 2.82576 6.15913 1.33337 8.00008 1.33337C9.84103 1.33337 11.3334 2.82576 11.3334 4.66671V6.00004C11.3334 6.36823 11.0349 6.66671 10.6667 6.66671C10.2986 6.66671 10.0001 6.36823 10.0001 6.00004V4.66671C10.0001 3.56214 9.10465 2.66671 8.00008 2.66671C6.89551 2.66671 6.00008 3.56214 6.00008 4.66671V6.00004C6.00008 6.36823 5.7016 6.66671 5.33341 6.66671C4.96522 6.66671 4.66675 6.36823 4.66675 6.00004V4.66671Z" fill="#FCFCFD"/>
</svg>
