<svg width="25" height="24" viewBox="0 0 25 24" fill="none" xmlns="http://www.w3.org/2000/svg">
<path d="M14.4085 15.1516C14.7002 15.1516 14.9707 15.0171 15.1166 14.7977C15.2625 14.5793 15.2625 14.3104 15.1166 14.0921L13.7166 11.9999L15.1166 9.90772C15.2625 9.68936 15.2625 9.42046 15.1166 9.20209C14.9708 8.98266 14.7002 8.84819 14.4085 8.84819H11.6083L10.2083 6.75602C10.0611 6.53766 9.79184 6.40322 9.49885 6.40322C9.20712 6.40322 8.93658 6.53768 8.79069 6.75602L7.39062 8.84819H4.59047C4.29749 8.84819 4.0282 8.98372 3.88231 9.20209C3.73519 9.42045 3.73519 9.68936 3.88231 9.90772L5.28114 11.9999L3.88106 14.0921H3.88231C3.7352 14.3104 3.7352 14.5793 3.88231 14.7977C4.02818 15.016 4.29748 15.1516 4.59047 15.1516H7.39062L8.79069 17.2438C8.93656 17.4621 9.20711 17.5966 9.49885 17.5966C9.79184 17.5966 10.0611 17.4621 10.2083 17.2438L11.6083 15.1516H14.4085ZM10.4276 14.0921L9.5 15.4786L8.57117 14.0921C8.4253 13.8737 8.15476 13.7393 7.86301 13.7393H6.00787L6.93543 12.3527C7.08129 12.1344 7.08129 11.8655 6.93543 11.6471L6.00787 10.2606H7.86426H7.86301C8.15474 10.2606 8.42528 10.1261 8.57117 9.90775L9.49872 8.52122L10.4263 9.90775H10.4275C10.5734 10.1261 10.8427 10.2606 11.1357 10.2606H12.9921L12.0645 11.6471H12.0633C11.9174 11.8654 11.9174 12.1344 12.0633 12.3527L12.9908 13.7393H11.1357C10.8427 13.7393 10.5734 13.8737 10.4276 14.0921Z" fill="#777E90"/>
<path d="M4.04588 6.11731C4.49721 6.11731 4.86374 5.80108 4.86374 5.41168V3.76484H6.77249C7.22507 3.76484 7.5916 3.4486 7.5916 3.05813C7.5916 2.66873 7.22507 2.3525 6.77249 2.3525H4.04464H4.04588C3.59331 2.3525 3.22803 2.66873 3.22803 3.05813V5.41168C3.22803 5.80108 3.59331 6.11731 4.04588 6.11731Z" fill="#777E90"/>
<path d="M14.9547 2.35247H12.2268C11.7755 2.35247 11.4089 2.6687 11.4089 3.0581C11.4089 3.44857 11.7755 3.76481 12.2268 3.76481H14.1355V5.41165H14.1368C14.1368 5.80104 14.5021 6.11728 14.9547 6.11728C15.406 6.11728 15.7725 5.80104 15.7725 5.41165V3.0581C15.7725 2.6687 15.406 2.35247 14.9547 2.35247Z" fill="#777E90"/>
<path d="M24.2441 4.58984C23.9399 4.02404 23.3851 3.58519 22.7044 3.37326L18.4631 2.04161C18.286 0.875588 17.1353 0.00324935 15.7726 0H3.22661C1.72055 0.00107559 0.501245 1.05306 0.5 2.35247V21.6475C0.501247 22.9469 1.72055 23.9989 3.22661 24H15.7726C17.2774 23.9989 18.498 22.9469 18.4992 21.6475V20.2201L24.3339 6.3892C24.5832 5.80297 24.5508 5.15564 24.2441 4.58984ZM16.8635 21.6475C16.8622 22.1671 16.3748 22.5877 15.7726 22.5887H3.22658C2.62442 22.5877 2.13693 22.1671 2.13568 21.6475V2.35247C2.13693 1.83293 2.62438 1.41234 3.22658 1.41126H15.7726C16.3747 1.41234 16.8622 1.83291 16.8635 2.35247V21.6475ZM22.798 5.90527L18.5005 16.0928L18.4992 3.55611L22.1447 4.70059C22.7107 4.87808 23.0025 5.41806 22.7968 5.90533L22.798 5.90527Z" fill="#777E90"/>
<path d="M14.9547 17.8827C14.5021 17.8827 14.1368 18.1979 14.1368 18.5883V20.2352H12.2268C11.7755 20.2352 11.4089 20.5514 11.4089 20.9408C11.4089 21.3313 11.7755 21.6475 12.2268 21.6475H14.9547C15.406 21.6475 15.7725 21.3313 15.7725 20.9408V18.5873V18.5883C15.7725 18.1979 15.406 17.8827 14.9547 17.8827Z" fill="#777E90"/>
<path d="M6.7725 20.2352H4.86374V18.5883C4.86374 18.1979 4.49721 17.8827 4.04588 17.8827C3.59331 17.8827 3.22803 18.1979 3.22803 18.5883V20.9419V20.9408C3.22803 21.3313 3.59331 21.6475 4.04588 21.6475H6.77374H6.77249C7.22507 21.6475 7.5916 21.3313 7.5916 20.9408C7.5916 20.5514 7.22507 20.2352 6.7725 20.2352Z" fill="#777E90"/>
</svg>
