<svg width="25" height="24" viewBox="0 0 25 24" fill="none" xmlns="http://www.w3.org/2000/svg">
<path d="M12.5003 3.00025C15.2922 3.00025 16.286 2.22515 16.286 1.50069C16.286 0.775096 15.2921 0 12.5003 0C11.4646 0 10.5768 0.114747 9.93116 0.334126C8.83266 0.706496 8.71459 1.27459 8.71459 1.50071C8.71459 2.22518 9.70849 3.00025 12.5003 3.00025ZM12.5003 1.20031C13.7303 1.20031 14.352 1.38368 14.5957 1.50069C14.3521 1.61768 13.7303 1.79994 12.5003 1.79994C11.2703 1.79994 10.6486 1.61657 10.4049 1.49956C10.6485 1.38369 11.2703 1.20031 12.5003 1.20031ZM12.5003 3.59984C11.7291 3.59984 11.079 3.86421 10.6694 4.34343C10.3571 4.70791 10.1927 5.19165 10.1927 5.7384C10.1942 7.0186 11.076 8.40006 12.5003 8.40006C13.9246 8.40006 14.8064 7.0186 14.8064 5.7384C14.8064 5.19055 14.642 4.70794 14.3296 4.34343C13.9216 3.86419 13.2715 3.59984 12.5003 3.59984ZM12.5003 7.19971C12.2642 7.17609 11.7216 6.44262 11.7934 5.59328C11.8382 5.06681 12.0758 4.80018 12.5003 4.80018C12.9248 4.80018 13.1624 5.0668 13.2072 5.5944C13.279 6.44262 12.7364 7.17722 12.5003 7.19971ZM22.4898 20.4H24.5L24.4552 19.7678C24.4477 19.6497 24.2429 16.8384 23.4434 13.9766C22.297 9.87851 20.4931 7.80066 18.0792 7.80066C16.6818 7.80066 15.3322 8.62751 14.4384 9.39135C13.8675 8.95824 13.1755 8.73775 12.4985 8.73775C11.8215 8.73775 11.1295 8.95824 10.5586 9.39135C9.66782 8.62751 8.31821 7.80066 6.92081 7.80066C4.50858 7.80066 2.70332 9.87845 1.55664 13.9766C0.75707 16.8396 0.552298 19.6509 0.544838 19.7678L0.5 20.4H2.51018L9.31181 14.2566V14.9305L6.93994 22.6636L6.92051 24H18.0804V22.7997L15.6891 14.9318V14.2579L22.4898 20.4ZM18.0795 8.99965C20.6442 8.99965 22.2836 14.4061 22.768 18.7766L15.6882 12.3824V12.1495C15.6882 11.4858 15.5462 10.9345 15.3205 10.4711C16.017 9.79272 17.1828 8.99965 18.0795 8.99965ZM12.5003 9.93786C12.8635 9.93786 13.2177 10.0987 13.4972 10.3912C13.7707 10.6758 14.095 11.2124 14.095 12.1495V14.3995H10.8922L10.9056 12.1495C10.9056 10.6972 11.7082 9.93786 12.5003 9.93786ZM2.23263 18.7766C2.71686 14.4072 4.35641 8.99959 6.92111 8.99959C7.81936 8.99959 8.9836 9.79269 9.68006 10.471C9.45438 10.9345 9.3124 11.4858 9.3124 12.1495V12.3823L2.23263 18.7766ZM16.4653 22.7995H8.53648L10.7439 15.5997H14.2771L16.4653 22.7995Z" fill="#777E90"/>
</svg>
