<svg width="25" height="24" viewBox="0 0 25 24" fill="none" xmlns="http://www.w3.org/2000/svg">
<path d="M20.9888 3.5202C16.2932 -1.1734 8.69023 -1.1734 4.02176 3.5202C-0.673919 8.21381 -0.673919 15.8134 4.02176 20.4798C8.71744 25.1734 16.3204 25.1734 20.9888 20.4798C25.6573 15.7862 25.6835 8.21381 20.9888 3.5202ZM5.91636 5.41386C9.22377 2.08071 14.4258 1.78686 18.1075 4.53369L5.03575 17.5996C2.28776 13.9196 2.58174 8.71981 5.91636 5.41386ZM19.0942 18.5859C15.7868 21.9191 10.5848 22.2129 6.90314 19.4661L19.9748 6.40015C22.7228 10.0802 22.4289 15.28 19.0942 18.5859Z" fill="#777E90"/>
</svg>
